<?xml version="1.0" standalone="no"?>
<!DOCTYPE svg PUBLIC "-//W3C//DTD SVG 20010904//EN"
 "http://www.w3.org/TR/2001/REC-SVG-20010904/DTD/svg10.dtd">
<svg version="1.0" xmlns="http://www.w3.org/2000/svg"
 width="240.000000pt" height="240.000000pt" viewBox="0 0 240.000000 240.000000"
 preserveAspectRatio="xMidYMid meet">
<metadata>
Created by potrace 1.11, written by Peter Selinger 2001-2013
</metadata>
<g transform="translate(0.000000,240.000000) scale(0.100000,-0.100000)"
fill="#000000" stroke="none">
<path d="M0 1200 l0 -1200 245 0 245 0 0 24 c0 14 -4 28 -10 31 -5 3 -10 17
-10 31 0 13 -4 24 -9 24 -5 0 -12 15 -15 32 -3 18 -8 44 -11 58 -3 14 -8 42
-11 63 -4 20 -10 40 -15 43 -5 3 -9 21 -9 40 0 19 -4 34 -10 34 -5 0 -10 10
-10 23 0 14 -9 26 -22 32 -14 6 -24 21 -26 38 -2 15 -8 27 -13 27 -5 0 -9 20
-9 44 0 25 -4 48 -10 51 -13 8 -13 182 0 190 5 3 11 18 11 33 1 21 2 23 6 7 3
-11 10 -23 15 -26 6 -4 13 -27 15 -53 3 -26 10 -49 14 -52 5 -3 9 -13 9 -23 0
-22 36 -56 44 -42 4 5 2 12 -4 16 -5 3 -10 16 -10 27 0 19 2 20 18 7 9 -8 31
-21 47 -29 17 -8 32 -17 35 -21 11 -12 80 -39 102 -40 15 0 18 -3 8 -6 -8 -3
-17 -9 -20 -12 -3 -4 -30 -19 -60 -34 -63 -32 -89 -47 -107 -64 -15 -13 -18
-109 -4 -117 5 -3 12 -35 16 -71 3 -36 11 -67 16 -70 5 -4 9 -17 9 -31 0 -13
5 -24 10 -24 6 0 10 -9 10 -20 0 -11 9 -36 20 -55 11 -20 18 -40 15 -45 -3 -4
-2 -15 1 -24 5 -14 27 -16 140 -16 123 0 134 1 134 18 0 10 -3 22 -7 26 -4 3
-8 13 -9 20 -3 24 -37 91 -57 113 -22 24 -38 121 -18 109 6 -4 11 -20 11 -35
0 -16 7 -34 15 -41 16 -14 55 -91 55 -109 0 -6 5 -11 10 -11 6 0 10 -15 10
-34 0 -18 7 -39 15 -46 16 -13 50 -10 51 5 2 21 16 71 25 87 5 10 9 38 9 62 0
25 4 48 10 51 5 3 10 28 10 55 0 27 5 52 10 55 6 3 10 30 10 58 0 90 10 127
33 127 19 0 19 -1 4 -18 -14 -16 -17 -46 -18 -198 0 -174 -7 -238 -22 -201
-12 32 -27 17 -27 -26 0 -24 -5 -48 -12 -55 -8 -8 86 -11 390 -12 346 0 402 2
402 14 0 8 -4 18 -10 21 -13 8 -13 62 0 70 6 3 10 17 10 30 0 30 10 55 21 55
6 0 5 -8 -1 -19 -5 -11 -10 -54 -10 -95 l0 -76 130 0 130 0 0 170 c0 151 -2
173 -20 205 -17 30 -20 54 -20 145 0 67 -4 110 -10 110 -5 0 -10 10 -10 23 0
29 -39 67 -68 67 -12 0 -22 5 -22 10 0 13 -47 13 -55 0 -3 -5 -14 -10 -24 -10
-34 0 -86 -33 -148 -94 -35 -33 -63 -66 -63 -73 0 -7 -4 -13 -10 -13 -5 0 -10
-9 -10 -20 0 -11 -4 -20 -8 -20 -13 0 -35 -76 -29 -99 3 -12 1 -21 -4 -21 -5
0 -9 -6 -9 -13 0 -16 -62 -77 -78 -77 -7 0 -12 -4 -12 -10 0 -5 -9 -10 -19
-10 -11 0 -23 -5 -26 -11 -4 -6 -13 -8 -21 -5 -7 3 -16 1 -19 -4 -9 -15 -169
-12 -183 2 -19 19 -14 73 7 92 11 10 18 28 16 42 -2 24 -67 94 -101 109 -19 8
-19 8 0 13 13 3 32 -9 58 -37 22 -23 44 -41 49 -41 17 0 39 -27 39 -48 0 -26
27 -49 41 -35 12 12 -8 83 -23 83 -4 0 -8 9 -8 20 0 11 -4 20 -9 20 -5 0 -11
9 -14 20 -5 18 0 20 58 20 35 0 67 5 70 10 3 6 19 10 35 10 16 0 32 5 35 10 3
6 17 10 31 10 13 0 24 6 24 13 0 6 8 -4 17 -23 9 -19 18 -37 19 -38 10 -14 48
17 62 49 9 21 20 39 24 39 5 0 8 6 8 13 0 7 16 28 35 47 19 19 35 38 35 42 0
11 -28 10 -32 -1 -5 -14 -137 -81 -159 -81 -10 0 -19 -5 -19 -11 0 -6 -8 -8
-19 -4 -11 3 -22 1 -26 -5 -3 -5 -17 -10 -31 -10 -13 0 -24 -4 -24 -10 0 -5
-25 -10 -55 -10 -30 0 -55 -4 -55 -10 0 -14 -327 -14 -335 0 -3 6 -21 10 -39
10 -18 0 -55 11 -82 25 -27 14 -55 25 -61 25 -7 0 -13 5 -13 10 0 6 -15 10
-32 11 -18 0 -44 8 -58 17 -14 9 -40 26 -58 37 -17 11 -32 23 -32 28 0 4 -6 7
-13 7 -14 0 -57 41 -57 54 0 5 -8 16 -18 25 -37 32 -68 170 -42 186 6 4 10 12
9 18 -3 20 12 67 22 67 5 0 9 6 9 13 0 16 62 77 78 77 7 0 12 4 12 9 0 16 44
21 60 6 19 -17 56 -20 65 -5 3 6 11 10 17 10 7 0 6 -5 -2 -15 -10 -12 -9 -16
4 -21 19 -7 56 21 56 43 0 7 5 13 10 13 6 0 10 5 10 12 0 6 15 43 34 82 35 72
47 114 47 153 -1 12 4 25 9 28 13 8 13 85 1 85 -6 0 -13 -4 -16 -10 -3 -5 -11
-10 -17 -10 -7 0 -6 6 2 15 7 8 19 15 26 15 8 0 14 7 14 15 0 16 -45 21 -54 6
-3 -5 -15 -11 -26 -14 -17 -4 -20 0 -20 29 0 31 3 34 29 34 17 0 33 5 36 10 3
6 16 10 28 10 13 0 29 9 37 20 8 11 19 20 25 20 12 0 55 42 55 53 0 4 -8 7
-17 7 -9 0 -13 3 -9 7 4 4 24 6 44 4 21 -1 51 5 67 13 17 9 36 16 43 16 6 0
12 5 12 10 0 6 20 10 45 10 25 0 45 5 45 10 0 6 10 10 22 10 12 0 32 10 44 21
28 26 38 19 77 -63 36 -73 64 -88 167 -88 74 0 77 -1 110 -35 41 -42 95 -48
125 -15 25 27 32 25 27 -9 -7 -47 46 -126 79 -119 14 3 14 -31 1 -42 -19 -15
-32 -56 -32 -103 0 -48 4 -57 35 -87 19 -19 35 -44 35 -55 0 -24 39 -65 61
-64 29 1 123 36 127 47 2 8 -8 12 -27 12 -17 0 -31 -4 -31 -10 0 -5 -7 -10
-15 -10 -22 0 -19 43 5 60 11 8 20 19 20 24 0 19 54 66 75 66 19 0 23 -7 28
-50 7 -58 -2 -150 -14 -150 -5 0 -9 -8 -9 -18 0 -10 -9 -24 -20 -32 -11 -8
-20 -19 -20 -25 0 -22 -76 -85 -101 -85 -26 0 -59 -27 -59 -48 0 -7 -4 -12 -8
-12 -4 0 -16 -15 -27 -32 -10 -18 -27 -40 -37 -49 -10 -9 -18 -21 -18 -26 0
-12 -73 -83 -86 -83 -16 0 -55 -50 -48 -62 4 -5 9 -6 13 -2 3 5 26 19 49 31
33 17 61 23 113 23 39 0 69 -4 69 -10 0 -5 6 -10 13 -10 8 0 19 -11 25 -25 6
-14 16 -25 22 -25 5 0 10 -9 10 -20 0 -11 5 -20 10 -20 6 0 10 -20 10 -44 0
-24 5 -46 11 -48 8 -3 11 -84 11 -276 l0 -272 214 0 214 0 0 1200 0 1200
-1200 0 -1200 0 0 -1200z m1548 1087 c15 -14 22 -32 22 -59 0 -41 21 -61 43
-39 13 13 157 15 157 3 0 -5 16 -14 35 -22 47 -18 89 -64 90 -98 0 -24 4 -27
40 -30 22 -2 44 -8 49 -13 6 -5 24 -9 41 -9 34 0 111 -35 139 -62 25 -26 19
-54 -19 -92 -41 -41 -42 -46 -15 -46 11 0 20 -4 20 -10 0 -5 7 -10 15 -10 19
0 85 -66 85 -85 0 -8 5 -15 10 -15 17 0 10 -73 -11 -105 -10 -16 -22 -37 -25
-45 -4 -8 -16 -25 -26 -37 -20 -21 -20 -21 8 -35 30 -14 62 -62 63 -94 1 -33
-46 -121 -68 -127 -22 -5 -28 -31 -11 -42 6 -3 10 -24 10 -46 0 -21 -4 -39
-10 -39 -5 0 -10 -5 -10 -12 0 -16 -41 -58 -57 -58 -7 0 -13 -4 -13 -10 0 -14
-23 -12 -54 4 -25 13 -26 13 -6 31 10 9 19 20 19 24 -2 14 14 51 22 51 5 0 9
9 9 20 0 11 5 20 10 20 6 0 10 20 10 45 0 25 -4 45 -10 45 -5 0 -10 15 -11 33
-1 75 -64 122 -104 77 -10 -11 -23 -20 -30 -20 -16 0 -68 -56 -71 -77 -2 -10
-7 -34 -12 -53 -9 -33 -10 -31 -11 27 -1 62 -17 94 -28 54 -3 -12 -10 -21 -17
-21 -14 0 -47 58 -37 65 5 2 11 25 13 50 4 29 13 52 27 64 11 10 21 30 21 45
0 23 -4 26 -32 26 -69 0 -106 88 -56 132 16 14 19 21 10 27 -9 5 -5 14 13 31
24 22 34 60 17 60 -4 0 -30 -22 -57 -50 -27 -27 -54 -50 -61 -50 -6 0 -19 -9
-29 -20 -25 -28 -46 -25 -80 10 -46 48 -125 79 -125 50 0 -16 -63 -12 -99 6
-26 13 -71 81 -71 109 0 29 -83 48 -107 24 -6 -6 -38 -13 -72 -16 -33 -3 -61
-10 -61 -14 0 -5 -8 -9 -18 -9 -10 0 -24 -9 -32 -20 -10 -14 -26 -20 -50 -20
-29 0 -42 8 -74 45 -22 25 -48 45 -58 45 -24 0 -23 -14 5 -42 34 -34 40 -58
21 -79 -14 -16 -32 -19 -96 -19 -44 0 -87 5 -98 12 -15 10 -22 10 -31 1 -10
-10 -6 -15 14 -22 15 -6 27 -15 27 -20 0 -17 -50 -41 -85 -41 -36 0 -65 -18
-65 -39 0 -6 16 -11 35 -11 41 0 125 -21 125 -31 0 -5 -4 -11 -10 -14 -5 -3
-10 -19 -10 -34 0 -19 -11 -39 -35 -62 -19 -19 -35 -39 -35 -45 0 -6 -9 -19
-20 -29 -25 -22 -50 -71 -50 -97 0 -10 -4 -18 -10 -18 -5 0 -10 -18 -10 -40 0
-22 5 -40 11 -40 6 0 3 -7 -6 -16 -15 -16 -20 -13 -71 37 -30 29 -54 59 -54
66 0 7 -5 13 -11 13 -5 0 -8 4 -4 9 3 5 1 12 -5 16 -13 8 -13 102 -1 110 6 3
17 20 26 37 l15 32 -45 46 c-55 56 -61 97 -18 135 27 22 28 27 29 124 2 145
13 175 65 183 20 2 24 8 21 36 -1 17 2 32 8 32 5 0 10 11 10 24 0 13 7 30 16
37 9 7 20 24 25 36 5 13 21 28 36 33 16 6 36 15 45 20 26 15 100 12 122 -5 22
-17 72 -20 81 -6 8 14 65 41 87 41 10 0 18 5 18 10 0 6 42 10 105 10 63 0 105
-4 105 -10 0 -5 13 -10 29 -10 49 0 111 -42 111 -74 0 -22 13 -20 35 4 10 11
43 32 74 47 31 15 58 31 59 35 2 4 14 8 27 8 13 0 26 4 29 8 10 17 71 9 94
-11z m-783 -587 c-11 -5 -30 -9 -42 -9 -13 -1 -23 -5 -23 -11 0 -5 -11 -10
-25 -10 -24 0 -24 1 -8 20 13 15 29 20 68 19 37 0 45 -3 30 -9z m-78 -228
c-15 -16 -27 -38 -27 -50 0 -12 -4 -22 -10 -22 -5 0 -10 -9 -10 -20 0 -11 -4
-20 -10 -20 -5 0 -10 -12 -10 -26 0 -17 6 -28 20 -31 11 -3 20 -8 20 -11 0
-12 -44 -52 -57 -52 -7 0 -13 -4 -13 -10 0 -5 -11 -10 -25 -10 -22 0 -25 4
-25 39 0 22 5 43 10 46 6 3 11 18 11 33 2 24 2 25 6 4 6 -31 26 -23 37 16 5
18 13 32 17 32 5 0 9 11 9 25 0 16 13 37 37 59 44 40 59 39 20 -2z m6 -120
c-6 -4 -13 -16 -16 -27 -4 -16 -5 -14 -6 7 0 14 5 28 12 31 16 6 24 -2 10 -11z
m28 -905 c-6 -6 -11 -28 -11 -48 0 -21 -5 -41 -12 -45 -8 -5 -10 10 -5 57 3
35 10 65 16 67 6 2 12 11 12 20 1 10 4 4 6 -12 3 -16 0 -33 -6 -39z m957 -80
c22 -25 46 -123 26 -106 -8 6 -14 19 -14 28 0 22 -23 71 -32 71 -5 0 -8 15 -8
33 0 18 -4 37 -9 43 -5 5 -4 19 2 34 10 23 12 20 15 -30 2 -33 10 -62 20 -73z
m-731 -339 c-3 -7 -5 -2 -5 12 0 14 2 19 5 13 2 -7 2 -19 0 -25z"/>
<path d="M1130 1767 c0 -18 48 -61 88 -78 17 -8 32 -17 32 -21 0 -5 11 -8 24
-8 14 0 28 -4 31 -10 3 -5 16 -10 29 -10 12 0 27 -5 33 -11 12 -12 53 -3 53
12 0 5 -9 9 -19 9 -11 0 -45 14 -75 31 -31 16 -61 27 -67 23 -6 -3 -17 3 -25
15 -8 12 -21 21 -28 21 -7 0 -21 9 -31 20 -21 23 -45 26 -45 7z"/>
<path d="M1430 1620 c0 -5 4 -10 9 -10 6 0 13 5 16 10 3 6 -1 10 -9 10 -9 0
-16 -4 -16 -10z"/>
<path d="M1235 1611 c-3 -6 -17 -11 -31 -11 -13 0 -24 -4 -24 -10 0 -5 -6 -10
-13 -10 -8 0 -22 -9 -32 -20 -10 -11 -23 -20 -30 -20 -12 0 -68 -57 -79 -80
-3 -8 -15 -28 -25 -45 -14 -22 -20 -49 -20 -98 -1 -67 7 -92 43 -134 11 -13
16 -23 11 -23 -4 0 0 -9 10 -20 10 -11 24 -20 31 -20 7 0 16 -4 19 -10 4 -6
-6 -7 -25 -4 -19 4 -30 2 -30 -5 0 -6 7 -11 15 -11 8 0 15 -4 15 -10 0 -5 9
-10 20 -10 11 0 20 -4 20 -10 0 -5 9 -10 20 -10 11 0 20 7 20 15 0 8 -7 15
-16 15 -8 0 -12 5 -9 11 4 5 -1 19 -11 30 -17 19 -16 19 30 19 40 0 80 13 96
31 3 3 12 9 20 13 54 25 120 80 120 99 0 6 13 22 28 37 15 14 36 44 45 66 10
21 22 47 27 56 13 23 13 118 0 118 -5 0 -10 9 -10 20 0 16 -7 20 -34 20 -38 0
-59 -19 -30 -26 22 -6 50 -57 34 -62 -5 -2 -10 -17 -10 -33 0 -16 -3 -29 -8
-29 -4 0 -15 -17 -25 -37 -30 -66 -100 -153 -123 -153 -6 0 -17 -7 -24 -15
-21 -26 -72 -45 -117 -45 -34 0 -50 6 -70 26 -24 24 -27 35 -27 92 0 42 5 67
12 70 7 2 12 10 12 18 0 12 121 141 128 136 7 -7 121 54 119 63 -5 14 -64 18
-72 6z"/>
<path d="M1360 1585 c0 -8 5 -15 10 -15 6 0 10 7 10 15 0 8 -4 15 -10 15 -5 0
-10 -7 -10 -15z"/>
<path d="M1577 1573 c-15 -14 -7 -80 11 -96 26 -24 45 -21 75 9 32 32 25 55
-7 25 -38 -36 -56 -28 -56 24 0 42 -7 54 -23 38z"/>
<path d="M1316 1483 c-9 -16 -18 -36 -22 -45 -3 -10 -10 -18 -15 -18 -5 0 -9
-11 -9 -24 0 -14 -4 -28 -10 -31 -5 -3 -10 -17 -10 -30 0 -13 -6 -25 -12 -28
-10 -3 -9 -9 4 -22 14 -15 20 -16 32 -5 9 7 16 19 16 26 0 8 5 14 10 14 6 0
10 8 10 18 0 22 22 72 33 72 4 0 7 10 7 23 0 13 5 28 11 34 15 15 4 43 -15 43
-8 0 -22 -12 -30 -27z"/>
<path d="M1233 1470 c-3 -11 -9 -20 -13 -20 -14 0 -23 -61 -11 -73 8 -8 11 -5
11 11 0 12 5 22 10 22 6 0 10 9 10 20 0 11 5 20 10 20 6 0 10 9 10 20 0 11 -5
20 -11 20 -6 0 -13 -9 -16 -20z"/>
<path d="M813 1385 c-7 -8 -13 -23 -13 -34 0 -11 -4 -22 -9 -26 -5 -3 -12 -19
-16 -35 -4 -17 -11 -30 -16 -30 -5 0 -9 -10 -9 -22 -1 -26 -73 -108 -95 -108
-12 0 -15 -16 -15 -75 0 -45 4 -75 10 -75 6 0 13 8 16 18 3 9 10 25 15 34 5
10 9 30 9 46 0 20 13 40 45 72 29 28 44 51 42 62 -3 9 -2 18 2 20 11 5 51 89
51 108 0 10 5 20 12 22 12 4 4 38 -9 38 -4 -1 -14 -7 -20 -15z"/>
<path d="M1180 1350 c0 -5 5 -10 10 -10 6 0 10 5 10 10 0 6 -4 10 -10 10 -5 0
-10 -4 -10 -10z"/>
<path d="M1640 1236 c-12 -33 -13 -96 -1 -115 17 -26 101 5 101 38 0 6 -9 11
-20 11 -11 0 -20 -4 -20 -10 0 -5 -11 -10 -25 -10 -20 0 -25 5 -25 25 0 14 6
34 12 45 10 15 10 22 1 31 -10 10 -15 6 -23 -15z"/>
<path d="M1326 1162 c-9 -8 25 -42 41 -42 7 0 16 -7 19 -15 4 -8 14 -15 24
-15 10 0 20 -5 22 -12 3 -7 10 -8 17 -4 10 7 7 14 -10 30 -31 27 -106 66 -113
58z"/>
<path d="M500 1113 c0 -17 48 -48 58 -38 7 6 -38 55 -50 55 -4 0 -8 -8 -8 -17z"/>
<path d="M1180 1123 c0 -10 52 -34 58 -28 3 2 -1 11 -8 20 -13 15 -50 21 -50
8z"/>
<path d="M570 1105 c0 -9 43 -55 52 -55 16 0 8 22 -14 41 -23 18 -38 24 -38
14z"/>
<path d="M1254 1089 c-7 -12 20 -39 40 -39 9 0 16 6 16 13 0 15 -48 38 -56 26z"/>
<path d="M1466 1071 c-3 -4 1 -17 9 -27 10 -15 16 -16 26 -7 9 9 8 15 -4 27
-18 18 -24 20 -31 7z"/>
<path d="M1160 1050 c0 -5 7 -10 16 -10 8 0 12 5 9 10 -3 6 -10 10 -16 10 -5
0 -9 -4 -9 -10z"/>
<path d="M568 1006 c-16 -8 -28 -11 -28 -5 0 5 -4 9 -10 9 -14 0 -12 -26 3
-37 13 -11 68 14 75 35 5 16 -7 15 -40 -2z"/>
<path d="M1070 980 c0 -6 -26 -10 -59 -10 -33 0 -62 -4 -65 -9 -5 -8 -52 -19
-96 -22 -22 -2 -120 -101 -120 -121 0 -11 7 -18 20 -18 11 0 20 -4 20 -9 0 -5
24 -11 53 -14 28 -3 72 -10 97 -16 25 -5 75 -10 112 -11 37 0 70 -4 73 -10 3
-5 26 -10 50 -10 24 0 47 5 50 10 3 6 37 10 76 10 38 0 69 4 69 8 0 5 12 9 28
10 119 6 170 82 100 151 -17 17 -42 31 -55 31 -13 0 -23 5 -23 10 0 6 -20 10
-45 10 -25 0 -45 5 -45 10 0 6 -47 10 -120 10 -73 0 -120 -4 -120 -10z m-67
-57 c-6 -16 -25 -44 -63 -90 -6 -7 -10 -19 -10 -28 0 -9 -9 -15 -25 -15 -14 0
-25 5 -25 10 0 6 -20 10 -44 10 -47 0 -66 19 -40 40 8 7 14 19 14 26 0 8 8 14
18 13 10 0 12 -3 5 -6 -19 -7 -16 -23 5 -23 10 0 34 15 54 34 22 21 50 36 70
39 18 2 36 5 40 5 4 1 4 -6 1 -15z m368 11 l36 -6 -23 -49 c-13 -27 -24 -51
-24 -55 0 -15 -32 -34 -59 -34 -16 0 -33 -4 -36 -10 -3 -5 -13 -10 -22 -10
-11 0 -8 6 11 21 14 11 26 26 26 34 0 7 7 18 15 25 8 7 15 23 15 36 0 13 5 24
10 24 6 0 10 5 10 10 0 19 -31 10 -39 -12 -5 -13 -21 -34 -35 -47 -14 -14 -26
-29 -26 -35 0 -5 -10 -20 -22 -33 -19 -21 -30 -23 -110 -23 -52 0 -88 4 -88
10 0 6 -14 10 -31 10 l-31 0 29 28 c28 26 63 88 63 111 0 12 265 16 331 5z
m90 -45 c14 -16 16 -26 8 -40 -5 -11 -16 -19 -24 -19 -8 0 -15 -4 -15 -10 0
-5 -12 -10 -27 -10 -16 0 -23 4 -18 8 16 12 35 50 35 72 0 26 18 26 41 -1z"/>
</g>
</svg>
